P3
# CREATOR: WileyMUD III (Map #57 (5x4)
  7   6
255
  0   0   0   0   0   0   0   0   0   0   0   0   0   0   0   0   0   0   0   0   0 
  0   0   0 150 150 150 150 150 150 150 150 150 150 150 150 150 150 150   0   0   0 
  0   0   0 150 150 150 150 150 150 150 150 150 150 150 150 150 150 150   0   0   0 
  0   0   0 150 150 150 150 150 150 150 150 150 150 150 150 150 150 150   0   0   0 
  0   0   0 150 150 150 150 150 150 150 150 150 255   0   0   0   0   0   0   0   0 
  0   0   0   0   0   0   0   0   0   0   0   0   0   0   0   0   0   0   0   0   0 
