P3
# CREATOR: WileyMUD III (Map #61 (3x7)
  5   9
255
  0   0   0   0   0   0   0   0   0   0   0   0   0   0   0 
  0   0   0 255 255   0 255 255   0 255 255   0   0   0   0 
  0   0   0 255 255   0 255 255   0 255 255   0   0   0   0 
  0   0   0 255 255   0 255 255   0 255 255   0   0   0   0 
  0   0   0   0   0   0 255 255   0   0   0   0   0   0   0 
  0   0   0   0   0   0 255 255   0   0   0   0   0   0   0 
  0   0   0   0   0   0 255 255   0   0   0   0   0   0   0 
  0   0   0   0   0   0 255 255   0   0   0   0   0   0   0 
  0   0   0   0   0   0   0   0   0   0   0   0   0   0   0 
