P3
# CREATOR: WileyMUD III (Map #17 (10x6)
 12   8
255
  0   0   0   0   0   0   0   0   0   0   0   0   0   0   0   0   0   0   0   0   0   0   0   0   0   0   0   0   0   0   0   0   0   0   0   0 
  0   0   0   0   0   0   0   0   0   0   0   0   0   0   0   0   0  70   0   0  70   0   0  70   0   0   0   0   0   0   0   0  70   0   0   0 
  0   0   0   0   0   0   0   0   0   0   0   0   0   0   0   0   0  70 140 200  20   0   0  70   0   0  70   0   0  70   0   0  70   0   0   0 
  0   0   0   0   0   0   0   0   0   0   0  70   0   0  70   0   0  70   0   0   0   0   0   0   0   0   0   0   0   0   0   0   0   0   0   0 
  0   0   0   0   0   0   0   0   0   0   0  70   0   0   0   0   0   0   0   0   0   0   0   0   0   0   0   0   0   0   0   0   0   0   0   0 
  0   0   0   0   0  70   0   0  70   0   0  70   0   0   0   0   0   0   0   0   0   0   0   0   0   0   0   0   0   0   0   0   0   0   0   0 
  0   0   0   0   0  70   0   0   0   0   0   0   0   0   0   0   0   0   0   0   0   0   0   0   0   0   0   0   0   0   0   0   0   0   0   0 
  0   0   0   0   0   0   0   0   0   0   0   0   0   0   0   0   0   0   0   0   0   0   0   0   0   0   0   0   0   0   0   0   0   0   0   0 
