P3
# CREATOR: WileyMUD III (Map #59 (1x1)
  3   3
255
  0   0   0   0   0   0   0   0   0 
  0   0   0 150 150 150   0   0   0 
  0   0   0   0   0   0   0   0   0 
