P3
# CREATOR: WileyMUD III (Map #58 (9x8)
 11  10
255
  0   0   0   0   0   0   0   0   0   0   0   0   0   0   0   0   0   0   0   0   0   0   0   0   0   0   0   0   0   0   0   0   0 
  0   0   0   0   0   0 255   0   0 255 255   0 255   0   0   0   0   0   0   0   0   0   0   0   0   0   0   0   0   0   0   0   0 
  0   0   0 255 255   0   0   0   0 255 255   0 255 255   0   0   0   0   0   0   0 255 255   0   0   0   0   0   0   0   0   0   0 
  0   0   0 255 255   0 255 255   0 255 255   0 255 255   0 255 255   0 255 255   0 255 255   0 255 255   0 255 255   0   0   0   0 
  0   0   0 255 255   0 255 255   0 255 255   0 255 255   0 255 255   0 255 255   0 255 255   0 255 255   0   0   0   0   0   0   0 
  0   0   0 255 255   0 255 255   0 255 255   0 255 255   0 255 255   0 255 255   0 255 255   0 255 255   0 255 255   0   0   0   0 
  0   0   0 255 255   0 255 255   0 255 255   0 255 255   0 255 255   0 255 255   0 255 255   0 255 255   0   0   0   0   0   0   0 
  0   0   0 255 255   0 255 255   0 255 255   0 255 255   0 255 255   0 255 255   0 255 255   0 255 255   0   0   0   0   0   0   0 
  0   0   0   0   0   0   0   0   0 255   0   0   0   0   0 255 255   0 255 255   0 255 255   0   0   0   0   0   0   0   0   0   0 
  0   0   0   0   0   0   0   0   0   0   0   0   0   0   0   0   0   0   0   0   0   0   0   0   0   0   0   0   0   0   0   0   0 
