P3
# CREATOR: WileyMUD III (Map #62 (4x3)
  6   5
255
  0   0   0   0   0   0   0   0   0   0   0   0   0   0   0   0   0   0 
  0   0   0   0   0   0   0   0   0 140 200  20 255 255   0   0   0   0 
  0   0   0 140 200  20 140 200  20 140 200  20 150 150 150   0   0   0 
  0   0   0 140 200  20  80 150  10  80 150  10  80 150  10   0   0   0 
  0   0   0   0   0   0   0   0   0   0   0   0   0   0   0   0   0   0 
