P3
# CREATOR: WileyMUD III (Map #48 (1x1)
  3   3
255
  0   0   0   0   0   0   0   0   0 
  0   0   0 255 255   0   0   0   0 
  0   0   0   0   0   0   0   0   0 
