P3
# CREATOR: WileyMUD III (Map #13 (1x1)
  3   3
255
  0   0   0   0   0   0   0   0   0 
  0   0   0 200 200 200   0   0   0 
  0   0   0   0   0   0   0   0   0 
