P3
# CREATOR: WileyMUD III (Map #12 (2x1)
  4   3
255
  0   0   0   0   0   0   0   0   0   0   0   0 
  0   0   0 200 200 200 200 200 200   0   0   0 
  0   0   0   0   0   0   0   0   0   0   0   0 
