P3
# CREATOR: WileyMUD III (Map #25 (1x1)
  3   3
255
  0   0   0   0   0   0   0   0   0 
  0   0   0   0   0  70   0   0   0 
  0   0   0   0   0   0   0   0   0 
