P3
# CREATOR: WileyMUD III (Map #35 (1x1)
  3   3
255
  0   0   0   0   0   0   0   0   0 
  0   0   0 140 200  20   0   0   0 
  0   0   0   0   0   0   0   0   0 
