P3
# CREATOR: WileyMUD III (Map #6 (4x7)
  6   9
255
  0   0   0   0   0   0   0   0   0   0   0   0   0   0   0   0   0   0 
  0   0   0   0   0   0   0   0   0 255 255   0   0   0   0   0   0   0 
  0   0   0   0   0   0   0   0   0 255 255   0   0   0   0   0   0   0 
  0   0   0   0   0   0 140 200  20 255 255   0   0   0   0   0   0   0 
  0   0   0 255 255   0 255   0   0 255 255   0   0   0   0   0   0   0 
  0   0   0 255 255   0 255 255   0 255 255   0 255 255   0   0   0   0 
  0   0   0 255 255   0 255   0   0 255 255   0   0   0   0   0   0   0 
  0   0   0   0   0   0 255 255   0   0   0   0   0   0   0   0   0   0 
  0   0   0   0   0   0   0   0   0   0   0   0   0   0   0   0   0   0 
