P3
# CREATOR: WileyMUD III (Map #36 (7x5)
  9   7
255
  0   0   0   0   0   0   0   0   0   0   0   0   0   0   0   0   0   0   0   0   0   0   0   0   0   0   0 
  0   0   0   0   0   0   0   0   0 255   0   0 255   0   0 255   0   0 255   0   0   0   0   0   0   0   0 
  0   0   0   0   0   0 255   0   0 255   0   0 255   0   0 255   0   0 255   0   0 255   0   0   0   0   0 
  0   0   0 255   0   0 255   0   0 255   0   0 255   0   0 255   0   0 255   0   0 140 200  20   0   0   0 
  0   0   0   0   0   0 255   0   0 255   0   0 255   0   0 255   0   0 255   0   0   0   0   0   0   0   0 
  0   0   0   0   0   0   0   0   0 255   0   0 255   0   0 255   0   0 255   0   0   0   0   0   0   0   0 
  0   0   0   0   0   0   0   0   0   0   0   0   0   0   0   0   0   0   0   0   0   0   0   0   0   0   0 
