P3
# CREATOR: WileyMUD III (Map #64 (1x3)
  3   5
255
  0   0   0   0   0   0   0   0   0 
  0   0   0 255   0   0   0   0   0 
  0   0   0 255   0   0   0   0   0 
  0   0   0 255   0   0   0   0   0 
  0   0   0   0   0   0   0   0   0 
