P3
# CREATOR: WileyMUD III (Map #55 (2x1)
  4   3
255
  0   0   0   0   0   0   0   0   0   0   0   0 
  0   0   0 255   0 255 255 255   0   0   0   0 
  0   0   0   0   0   0   0   0   0   0   0   0 
