P3
# CREATOR: WileyMUD III (Map #33 (12x3)
 14   5
255
  0   0   0   0   0   0   0   0   0   0   0   0   0   0   0   0   0   0   0   0   0   0   0   0   0   0   0   0   0   0   0   0   0   0   0   0   0   0   0   0   0   0 
  0   0   0   0   0   0   0   0   0   0   0   0   0   0   0   0   0   0   0   0   0   0   0   0   0   0   0   0   0  70   0   0  70   0   0  70   0   0  70   0   0   0 
  0   0   0   0   0   0   0   0  70   0   0  70   0   0  70   0   0  70   0   0  70   0   0  70   0   0  70   0   0  70   0   0   0   0   0   0   0   0   0   0   0   0 
  0   0   0   0   0 150   0   0  70   0   0   0   0   0   0   0   0   0   0   0   0   0   0   0   0   0   0   0   0   0   0   0   0   0   0   0   0   0   0   0   0   0 
  0   0   0   0   0   0   0   0   0   0   0   0   0   0   0   0   0   0   0   0   0   0   0   0   0   0   0   0   0   0   0   0   0   0   0   0   0   0   0   0   0   0 
