P3
# CREATOR: WileyMUD III (Map #44 (3x1)
  5   3
255
  0   0   0   0   0   0   0   0   0   0   0   0   0   0   0 
  0   0   0 255   0   0 255   0   0 255   0   0   0   0   0 
  0   0   0   0   0   0   0   0   0   0   0   0   0   0   0 
