P3
# CREATOR: WileyMUD III (Map #73 (7x9)
  9  11
255
  0   0   0   0   0   0   0   0   0   0   0   0   0   0   0   0   0   0   0   0   0   0   0   0   0   0   0 
  0   0   0   0   0   0   0   0   0 255 255   0 255   0   0 255 255   0   0   0   0   0   0   0   0   0   0 
  0   0   0 255 255   0 255 255   0 255 255   0 255 255   0 255 255   0 255 255   0 255 255   0   0   0   0 
  0   0   0   0   0   0 255 255   0 255 255   0 255 255   0 255 255   0 255 255   0   0   0   0   0   0   0 
  0   0   0 255 255   0 255 255   0 255 255   0 255 255   0 255 255   0 255 255   0 255 255   0   0   0   0 
  0   0   0 255 255   0 255 255   0 255 255   0 255 255   0 255 255   0 255 255   0 255 255   0   0   0   0 
  0   0   0 255 255   0 255 255   0 255 255   0 255 255   0 255 255   0 255 255   0   0   0   0   0   0   0 
  0   0   0 255 255   0 255 255   0 255 255   0 255 255   0 255 255   0 255 255   0 255 255   0   0   0   0 
  0   0   0 255 255   0 255 255   0   0   0   0 255 255   0 255 255   0 255 255   0 255 255   0   0   0   0 
  0   0   0 255 255   0 255 255   0 255 255   0 255 255   0 255 255   0 255 255   0 255 255   0   0   0   0 
  0   0   0   0   0   0   0   0   0   0   0   0   0   0   0   0   0   0   0   0   0   0   0   0   0   0   0 
