P3
# CREATOR: WileyMUD III (Map #72 (1x1)
  3   3
255
  0   0   0   0   0   0   0   0   0 
  0   0   0 255   0   0   0   0   0 
  0   0   0   0   0   0   0   0   0 
