P3
# CREATOR: WileyMUD III (Map #69 (1x3)
  3   5
255
  0   0   0   0   0   0   0   0   0 
  0   0   0 255 255   0   0   0   0 
  0   0   0 255 255   0   0   0   0 
  0   0   0 255 255   0   0   0   0 
  0   0   0   0   0   0   0   0   0 
