P3
# CREATOR: WileyMUD III (Map #71 (2x2)
  4   4
255
  0   0   0   0   0   0   0   0   0   0   0   0 
  0   0   0 255   0   0 255   0   0   0   0   0 
  0   0   0 255   0   0 255   0   0   0   0   0 
  0   0   0   0   0   0   0   0   0   0   0   0 
